<svg xmlns="http://www.w3.org/2000/svg" viewBox="0 0 1200 630" width="1200" height="630">
  <defs>
    <linearGradient id="bg" x1="0" y1="0" x2="1" y2="1">
      <stop offset="0" stop-color="#134e4a"/>
      <stop offset="1" stop-color="#0d9488"/>
    </linearGradient>
  </defs>
  <rect width="1200" height="630" fill="url(#bg)"/>
  <!-- Book cover mockup -->
  <rect x="80" y="60" width="380" height="510" rx="14" fill="#0f172a" fill-opacity="0.2"/>
  <rect x="80" y="60" width="380" height="510" rx="14" fill="none" stroke="#fff" stroke-opacity="0.2" stroke-width="2"/>
  <text x="270" y="110" text-anchor="middle" font-family="Inter, Arial, sans-serif" font-size="13" font-weight="700" fill="#5eead4" letter-spacing="3">PACKT</text>
  <text x="270" y="470" text-anchor="middle" font-family="Inter, Arial, sans-serif" font-size="30" font-weight="800" fill="#fff">AI for Everyday</text>
  <text x="270" y="505" text-anchor="middle" font-family="Inter, Arial, sans-serif" font-size="30" font-weight="800" fill="#fff">Automation</text>
  <text x="270" y="535" text-anchor="middle" font-family="Inter, Arial, sans-serif" font-size="13" fill="#99f6e4">7 AI workflows to save hours at work</text>
  <circle cx="255" cy="548" r="2" fill="#fbbf24"/>
  <text x="265" y="552" text-anchor="start" font-family="Inter, Arial, sans-serif" font-size="12" fill="#5eead4">Dipankar Sarkar</text>
  <!-- Spark logo -->
  <g transform="translate(560 200)">
    <rect x="-28" y="-28" width="56" height="56" rx="12" fill="#0d9488"/>
    <g stroke="#fff" stroke-width="4" stroke-linecap="round">
      <line x1="0" y1="-14" x2="0" y2="14"/>
      <line x1="-12" y1="-7" x2="12" y2="7"/>
      <line x1="-12" y1="7" x2="12" y2="-7"/>
    </g>
    <circle cx="0" cy="0" r="3.5" fill="#fbbf24"/>
  </g>
  <text x="600" y="280" font-family="Inter, Arial, sans-serif" font-size="44" font-weight="800" fill="#fff">AI for Everyday Automation</text>
  <text x="560" y="330" font-family="Inter, Arial, sans-serif" font-size="22" fill="#ccfbf1">7 AI Workflows to Save Hours at Work Every Week</text>
  <text x="560" y="390" font-family="Inter, Arial, sans-serif" font-size="18" fill="#99f6e4">By Dipankar Sarkar</text>
  <text x="560" y="420" font-family="Inter, Arial, sans-serif" font-size="15" fill="#5eead4">Packt Publishing · June 2026 · ISBN 978-1808089817</text>
  <text x="560" y="530" font-family="Inter, Arial, sans-serif" font-size="18" font-weight="600" fill="#fff" fill-opacity="0.9">whatgenerativeai.com</text>
</svg>